HIERARCHY
ROOT Hips
{
	OFFSET -0.001795 -0.223333 0.028219
	CHANNELS 6 Xposition Yposition Zposition Zrotation Yrotation Xrotation
	JOINT LeftUpLeg
	{
		OFFSET 0.069520 -0.091406 -0.006815
		CHANNELS 3 Zrotation Yrotation Xrotation
		JOINT LeftLeg
		{
			OFFSET 0.034277 -0.375199 -0.004496
			CHANNELS 3 Zrotation Yrotation Xrotation
			JOINT LeftFoot
			{
				OFFSET -0.013596 -0.397961 -0.043693
				CHANNELS 3 Zrotation Yrotation Xrotation
				JOINT LeftToe
				{
					OFFSET 0.026358 -0.055791 0.119288
					CHANNELS 3 Zrotation Yrotation Xrotation
					End Site
					{
						OFFSET 0.000000 0.000000 0.000000
					}
				}
			}
		}
	}
	JOINT RightUpLeg
	{
		OFFSET -0.067670 -0.090522 -0.004320
		CHANNELS 3 Zrotation Yrotation Xrotation
		JOINT RightLeg
		{
			OFFSET -0.038290 -0.382569 -0.008850
			CHANNELS 3 Zrotation Yrotation Xrotation
			JOINT RightFoot
			{
				OFFSET 0.015774 -0.398415 -0.042312
				CHANNELS 3 Zrotation Yrotation Xrotation
				JOINT RightToe
				{
					OFFSET -0.025372 -0.048144 0.123348
					CHANNELS 3 Zrotation Yrotation Xrotation
					End Site
					{
						OFFSET 0.000000 0.000000 0.000000
					}
				}
			}
		}
	}
	JOINT Spine
	{
		OFFSET -0.002533 0.108963 -0.026696
		CHANNELS 3 Zrotation Yrotation Xrotation
		JOINT Spine1
		{
			OFFSET 0.005487 0.135180 0.001092
			CHANNELS 3 Zrotation Yrotation Xrotation
			JOINT Spine2
			{
				OFFSET 0.001457 0.052922 0.025425
				CHANNELS 3 Zrotation Yrotation Xrotation
				JOINT Neck
				{
					OFFSET -0.002778 0.213870 -0.042857
					CHANNELS 3 Zrotation Yrotation Xrotation
					JOINT Head
					{
						OFFSET 0.005152 0.064970 0.051349
						CHANNELS 3 Zrotation Yrotation Xrotation
						End Site
						{
							OFFSET 0.000000 0.000000 0.000000
						}
					}
				}
				JOINT LeftShoulder
				{
					OFFSET 0.078845 0.121749 -0.034090
					CHANNELS 3 Zrotation Yrotation Xrotation
					JOINT LeftArm
					{
						OFFSET 0.090977 0.030469 -0.008868
						CHANNELS 3 Zrotation Yrotation Xrotation
						JOINT LeftForeArm
						{
							OFFSET 0.259612 -0.012772 -0.027456
							CHANNELS 3 Zrotation Yrotation Xrotation
							JOINT LeftHand
							{
								OFFSET 0.249234 0.008986 -0.001171
								CHANNELS 3 Zrotation Yrotation Xrotation
								End Site
								{
									OFFSET 0.000000 0.000000 0.000000
								}
							}
						}
					}
				}
				JOINT RightShoulder
				{
					OFFSET -0.081759 0.118833 -0.038615
					CHANNELS 3 Zrotation Yrotation Xrotation
					JOINT RightArm
					{
						OFFSET -0.096012 0.032551 -0.009143
						CHANNELS 3 Zrotation Yrotation Xrotation
						JOINT RightForeArm
						{
							OFFSET -0.253742 -0.013329 -0.021401
							CHANNELS 3 Zrotation Yrotation Xrotation
							JOINT RightHand
							{
								OFFSET -0.255298 0.007772 -0.005559
								CHANNELS 3 Zrotation Yrotation Xrotation
								End Site
								{
									OFFSET 0.000000 0.000000 0.000000
								}
							}
						}
					}
				}
			}
		}
	}
}
MOTION
Frames: 13
Frame Time: 0.050000
0.017290 0.115461 -0.057028 10.826661 6.454374 -73.779417 14.749269 2.915617 -40.429763 20.541387 -21.817927 60.876484 -26.571202 -42.259594 6.615580 0.000000 0.000000 0.000000 -6.313416 1.447542 -38.378341 30.909846 -56.630854 122.689874 -6.068520 -25.326541 -81.274299 0.000000 0.000000 0.000000 22.952347 16.882999 -33.870912 -11.523564 32.417759 108.308426 26.628074 -9.316014 -38.961145 9.756643 -6.903704 23.324924 0.000000 0.000000 0.000000 -38.460255 -14.841236 12.059345 -46.566283 -16.327929 0.555137 3.018051 -48.804789 0.998530 0.000000 0.000000 0.000000 24.910942 7.183699 -3.345002 48.253689 -0.199807 -1.619405 -14.615340 64.800362 -11.833898 0.000000 0.000000 0.000000
0.018409 0.117606 -0.056604 9.837155 6.236787 -75.767893 13.565415 2.388952 -40.759267 18.405818 -21.830574 64.710373 -28.664473 -39.545973 12.283703 0.000000 0.000000 0.000000 -7.364517 0.783571 -36.066123 32.101918 -55.445540 119.808780 -5.341424 -27.273446 -81.687985 0.000000 0.000000 0.000000 19.204770 14.147234 -32.874675 -12.467958 31.207392 101.437173 24.481975 -7.213381 -41.836385 10.041814 -9.085844 24.171514 0.000000 0.000000 0.000000 -39.369124 -13.386183 9.262827 -47.864876 -9.231840 -1.351580 -0.720806 -45.460666 2.148838 0.000000 0.000000 0.000000 22.785585 4.046953 -2.158208 50.404780 -3.579962 -3.859178 -6.463264 65.028213 -5.006918 0.000000 0.000000 0.000000
0.019891 0.122343 -0.057502 10.019073 5.982567 -78.263322 11.259432 1.419952 -39.515289 16.507506 -20.685835 67.551620 -26.267034 -34.119639 13.964274 0.000000 0.000000 0.000000 -6.356894 1.105961 -33.878653 22.057203 -42.155876 127.249108 -7.584976 -21.326705 -79.445976 0.000000 0.000000 0.000000 16.897627 12.727119 -32.966109 -15.140344 28.500730 89.263129 20.691225 -6.714507 -33.067094 5.811457 -6.080486 22.712348 0.000000 0.000000 0.000000 -39.280776 -9.747979 5.630184 -48.214948 -6.378316 -2.636774 0.090195 -45.322710 2.024452 0.000000 0.000000 0.000000 20.270675 2.672686 -1.632009 51.944665 -5.167170 -5.581897 -6.322292 68.587325 -3.695146 0.000000 0.000000 0.000000
0.021513 0.128571 -0.059255 8.188122 4.921504 -78.915971 10.283940 0.982586 -39.671188 16.576178 -21.704164 69.337706 -25.996958 -34.754168 13.119014 0.000000 0.000000 0.000000 -5.185504 1.577724 -31.964134 16.520472 -31.637461 129.083001 -9.295731 -16.842316 -79.750136 0.000000 0.000000 0.000000 14.527275 11.581780 -34.545954 -14.219777 24.460423 86.287944 18.009607 -5.828735 -33.279974 6.249275 -6.991607 21.566608 0.000000 0.000000 0.000000 -38.429503 -7.836610 3.432522 -48.769707 -1.952495 -4.037829 1.139586 -45.305489 1.631459 0.000000 0.000000 0.000000 17.191244 -0.549650 -1.924135 51.957003 -7.666072 -6.974979 1.653595 69.484629 2.876099 0.000000 0.000000 0.000000
0.023201 0.132583 -0.061097 8.256781 3.902455 -79.409746 9.809182 0.948680 -40.214223 15.406182 -21.549296 72.699018 -25.862835 -33.045883 14.882988 0.000000 0.000000 0.000000 -3.367893 2.582803 -32.115589 12.611691 -22.618064 130.786163 -10.086641 -13.885883 -78.312187 0.000000 0.000000 0.000000 15.502669 12.408222 -34.351470 -14.899462 24.037074 81.625580 17.660444 -7.460674 -29.876150 6.197758 -6.711727 20.252195 0.000000 0.000000 0.000000 -36.257180 -4.919668 1.574744 -49.798895 -0.628686 -4.862876 4.671186 -47.542327 0.483105 0.000000 0.000000 0.000000 14.999936 -2.230905 -2.297915 51.612977 -9.756358 -8.116561 6.484154 74.192987 7.039732 0.000000 0.000000 0.000000
0.024793 0.135754 -0.062921 7.635801 2.838733 -80.316320 9.843966 1.122047 -40.876629 13.884223 -21.494538 76.474489 -24.621600 -28.989963 17.452951 0.000000 0.000000 0.000000 -2.100683 3.289225 -32.095184 11.057964 -18.120079 129.633750 -10.213687 -13.129830 -76.956349 0.000000 0.000000 0.000000 15.634795 12.986238 -35.318142 -14.371560 22.039974 79.446303 16.455126 -8.442934 -27.315247 5.051841 -5.008513 16.272325 0.000000 0.000000 0.000000 -33.788643 -1.289928 -0.854303 -51.027395 0.701587 -5.662338 6.036659 -50.826674 0.168579 0.000000 0.000000 0.000000 13.475757 -4.375550 -2.986898 49.675436 -10.213371 -8.181160 9.393263 77.387602 10.021728 0.000000 0.000000 0.000000
0.025959 0.139539 -0.064455 7.512045 1.878639 -81.195117 9.905099 1.382797 -40.501158 12.919431 -21.431671 79.155731 -22.765669 -27.329315 16.407758 0.000000 0.000000 0.000000 -1.031666 3.879952 -31.789227 10.444481 -15.895494 128.423576 -9.944769 -13.397211 -74.842114 0.000000 0.000000 0.000000 15.507926 13.328614 -35.887973 -14.357846 20.886520 76.264181 15.452064 -8.521128 -24.468634 4.681410 -4.651950 14.715466 0.000000 0.000000 0.000000 -31.290860 -0.081880 -1.676596 -51.778925 1.845588 -6.333183 8.414394 -56.032674 -0.879126 0.000000 0.000000 0.000000 12.252097 -5.437743 -3.179283 48.536782 -9.948721 -8.072741 5.010311 80.576095 7.465507 0.000000 0.000000 0.000000
0.026788 0.141753 -0.065216 7.175805 0.903303 -81.566102 9.578532 1.363670 -41.209281 12.244529 -21.540169 82.168755 -21.821986 -26.403549 16.123302 0.000000 0.000000 0.000000 -0.886062 4.067890 -31.869583 10.417565 -14.979565 127.391787 -9.882793 -12.871730 -72.939501 0.000000 0.000000 0.000000 15.017696 13.469075 -36.998754 -13.393221 19.084671 74.814325 14.121384 -9.068846 -22.850863 3.917487 -3.731213 12.544102 0.000000 0.000000 0.000000 -29.635371 2.575870 -3.239560 -52.794986 3.279968 -7.134262 8.849704 -61.807151 -0.873469 0.000000 0.000000 0.000000 11.924310 -5.672814 -3.152575 47.639223 -9.636323 -7.919560 -8.973304 83.749220 -4.223368 0.000000 0.000000 0.000000
0.027168 0.143316 -0.065794 6.899477 0.325086 -82.399521 10.074080 1.735734 -40.759131 10.502753 -20.306166 83.829043 -19.857184 -24.651759 14.672986 0.000000 0.000000 0.000000 -0.669841 4.124923 -31.210482 10.911861 -15.165698 125.540227 -9.447121 -14.112259 -71.493028 0.000000 0.000000 0.000000 14.266970 13.259981 -37.491392 -13.444546 18.808305 73.417393 14.330144 -8.565651 -21.065439 3.387077 -3.234068 11.211201 0.000000 0.000000 0.000000 -28.241417 3.096424 -3.444721 -53.417964 3.440130 -7.468967 12.408352 -66.532678 -3.070931 0.000000 0.000000 0.000000 11.981171 -5.835409 -3.260011 47.000003 -8.934893 -7.686323 -43.047256 85.096702 -35.432719 0.000000 0.000000 0.000000
0.027271 0.144919 -0.066253 6.265892 -0.485494 -82.642675 11.188292 2.409256 -41.391052 9.662073 -20.218548 85.409004 -20.007146 -25.068199 14.555027 0.000000 0.000000 0.000000 -1.092257 4.000504 -31.288507 11.412895 -15.806486 125.151938 -9.054745 -15.173762 -69.954160 0.000000 0.000000 0.000000 12.942530 12.793376 -38.457208 -11.632499 16.716948 76.037667 12.785676 -8.183094 -22.983658 4.552055 -4.259422 10.456596 0.000000 0.000000 0.000000 -26.602216 3.669144 -3.814237 -53.213805 4.166366 -7.562905 12.416991 -72.114679 -3.532300 0.000000 0.000000 0.000000 12.308385 -5.705742 -3.238798 47.011403 -8.505099 -7.420689 -67.652161 83.808689 -57.450396 0.000000 0.000000 0.000000
0.026991 0.148532 -0.066881 5.954022 -1.031954 -82.395647 12.201789 3.008389 -42.070521 7.930135 -18.843589 87.011312 -18.417770 -23.658131 13.329544 0.000000 0.000000 0.000000 -1.570052 3.874735 -31.732248 12.264056 -16.734915 123.923238 -8.936486 -15.092749 -68.312194 0.000000 0.000000 0.000000 11.675810 12.207409 -39.300347 -10.823380 16.469643 78.605382 13.108131 -7.097328 -24.774053 4.840550 -4.600710 10.368983 0.000000 0.000000 0.000000 -26.212630 3.880867 -4.026283 -51.570076 3.822098 -7.113984 18.989237 -75.849875 -9.013494 0.000000 0.000000 0.000000 12.725888 -5.581568 -3.233267 46.616054 -7.914930 -7.068884 -83.473754 83.081639 -71.917411 0.000000 0.000000 0.000000
0.026581 0.153449 -0.067487 5.307410 -2.220192 -82.139624 13.088809 3.630511 -42.462965 8.171232 -18.867681 86.907764 -18.414071 -23.974789 12.896657 0.000000 0.000000 0.000000 -1.572506 3.813751 -31.009785 13.656085 -17.511717 120.751250 -8.619855 -16.056144 -67.227738 0.000000 0.000000 0.000000 10.658860 11.528892 -39.115673 -9.197544 13.849542 76.084667 10.582622 -7.488213 -23.272212 6.159355 -6.046158 11.812549 0.000000 0.000000 0.000000 -25.187170 3.366425 -3.573152 -49.001864 5.415603 -7.333139 23.965466 -81.117579 -14.040491 0.000000 0.000000 0.000000 13.164272 -5.897435 -3.492752 46.071823 -8.825781 -7.258366 -89.237071 83.426726 -77.570612 0.000000 0.000000 0.000000
0.026153 0.160981 -0.067774 4.654549 -2.982522 -81.707089 13.521078 3.920916 -42.264224 7.945062 -18.599300 87.282260 -17.924894 -23.844301 12.106178 0.000000 0.000000 0.000000 -1.602070 3.814569 -30.986180 14.121894 -17.033996 118.247133 -8.603458 -15.849135 -65.984735 0.000000 0.000000 0.000000 9.656375 10.849135 -39.080402 -8.087219 12.627052 76.712564 9.712636 -7.189778 -25.071862 6.680138 -6.625778 12.932437 0.000000 0.000000 0.000000 -23.303226 4.323935 -4.039368 -47.127501 6.325610 -7.130467 22.060189 -84.846891 -13.361289 0.000000 0.000000 0.000000 13.399102 -5.960681 -3.561891 44.956181 -9.888934 -7.255686 -99.397021 84.217358 -88.502290 0.000000 0.000000 0.000000
